<svg width="24" height="24" fill="none" version="1.1" viewBox="0 0 24 24" xmlns="http://www.w3.org/2000/svg">
 <path d="m7.0154 0.875a1.0904 1.0904 0 0 0-1.0904 1.0904v1.4019h-0.46731c-1.9657 0-3.5827 1.6169-3.5827 3.5827v10.592c0 1.9658 1.617 3.5827 3.5827 3.5827h13.085c1.9658 0 3.5827-1.6169 3.5827-3.5827v-10.592c0-1.9657-1.6169-3.5827-3.5827-3.5827h-0.46731v-1.4019a1.0904 1.0904 0 0 0-1.0904-1.0904 1.0904 1.0904 0 0 0-1.0904 1.0904v1.4019h-7.7885v-1.4019a1.0904 1.0904 0 0 0-1.0904-1.0904zm-1.5577 4.6731h0.46731v0.77885a1.0904 1.0904 0 0 0 1.0904 1.0904 1.0904 1.0904 0 0 0 1.0904-1.0904v-0.77885h7.7885v0.77885a1.0904 1.0904 0 0 0 1.0904 1.0904 1.0904 1.0904 0 0 0 1.0904-1.0904v-0.77885h0.46731c0.78723 0 1.4019 0.61473 1.4019 1.4019v10.592c0 0.78725-0.61467 1.4019-1.4019 1.4019h-13.085c-0.7872 0-1.4019-0.61469-1.4019-1.4019v-10.592c0-0.78718 0.61475-1.4019 1.4019-1.4019zm1.2462 2.8038a1.0904 1.0904 0 0 0-1.0904 1.0904 1.0904 1.0904 0 0 0 1.0904 1.0904h10.592a1.0904 1.0904 0 0 0 1.0904-1.0904 1.0904 1.0904 0 0 0-1.0904-1.0904z" color="#000000" fill="currentColor" stroke-linecap="round" stroke-linejoin="round" stroke-width="1.2462" style="-inkscape-stroke:none"/>
</svg>
