<svg width="24" height="24" fill="none" version="1.1" viewBox="0 0 24 24" xmlns="http://www.w3.org/2000/svg">
 <path d="m12 0.875c-5.579 0-10.125 4.546-10.125 10.125 0 5.579 4.546 10.125 10.125 10.125 5.579 0 10.125-4.546 10.125-10.125 0-5.579-4.546-10.125-10.125-10.125zm0 2.1808c4.4004 0 7.9442 3.5438 7.9442 7.9442 0 4.4004-3.5438 7.9442-7.9442 7.9442-4.4004 0-7.9442-3.5438-7.9442-7.9442 0-4.4004 3.5438-7.9442 7.9442-7.9442zm-1.0904 2.9596v5.4373l2.8111 2.8111 1.5431-1.5431-2.1735-2.1735v-4.5319z" color="#000000" fill="currentColor" stroke-width="1.2462" style="-inkscape-stroke:none"/>
</svg>
