<svg width="24" height="24" fill="none" version="1.1" viewBox="0 0 24 24" xmlns="http://www.w3.org/2000/svg">
 <path d="m11.995 0.819a1.089 1.089 0 0 0-0.96484 0.58594l-7.7715 14.924a1.0889 1.0889 0 0 0-0.11914 0.39844 1.0889 1.0889 0 0 0 0 0.07422 1.0889 1.0889 0 0 0 0.033203 0.3125 1.0889 1.0889 0 0 0 0.035156 0.10547 1.0889 1.0889 0 0 0 0.14648 0.26562 1.0889 1.0889 0 0 0 0.052734 0.07422 1.0889 1.0889 0 0 0 0.039063 0.05273c4.7589 4.7589 12.339 4.7589 17.098 0a1.0889 1.0889 0 0 0 0.0625-0.07227 1.0889 1.0889 0 0 0 0.15234-0.23828 1.0889 1.0889 0 0 0 0.08594-0.27148 1.0889 1.0889 0 0 0 0.01563-0.14258 1.0889 1.0889 0 0 0-0.0039-0.14062 1.0889 1.0889 0 0 0-0.02148-0.14062 1.0889 1.0889 0 0 0 0-2e-3 1.0889 1.0889 0 0 0-2e-3 -0.0039 1.0889 1.0889 0 0 0-0.03711-0.12695 1.0889 1.0889 0 0 0 0-0.0039 1.0889 1.0889 0 0 0-2e-3 -0.0039 1.0889 1.0889 0 0 0-0.05664-0.12695l-0.03125-0.06055a1.0889 1.0889 0 0 0-2e-3 -2e-3l-7.744-14.871a1.089 1.089 0 0 0-0.96484-0.58594zm0 3.4434 5.1211 9.8359c-1.599 1.5446-3.3712 2.2617-5.1211 2.2617-1.7499 0-3.5221-0.7171-5.1211-2.2617zm-1.2441 5.3184c-0.73605 0-1.3496 0.61356-1.3496 1.3496s0.61356 1.3496 1.3496 1.3496c0.73605 0 1.3477-0.61356 1.3477-1.3496 0-0.73605-0.61161-1.3496-1.3477-1.3496zm0 1.2441c0.04887 0 0.10352 0.05661 0.10352 0.10547 0 0.04887-0.05466 0.10352-0.10352 0.10352-0.04887 0-0.10547-0.05466-0.10547-0.10352 0-0.04887 0.05661-0.10547 0.10547-0.10547zm3.6641 1.2461c-0.70513 0.03665-1.2793 0.63461-1.2793 1.3477 0 0.73605 0.61161 1.3496 1.3477 1.3496 0.73605 0 1.3496-0.61356 1.3496-1.3496 0-0.73605-0.61356-1.3477-1.3496-1.3477-0.023 0-0.04561-0.0012-0.06836 0zm0.06836 1.2441c0.04887 0 0.10547 0.05466 0.10547 0.10352 0 0.04887-0.05661 0.10547-0.10547 0.10547-0.04887 0-0.10352-0.05661-0.10352-0.10547 0-0.04887 0.05466-0.10352 0.10352-0.10352zm-8.6504 2.7812c1.8462 1.5972 3.9943 2.4414 6.1621 2.4414 2.1682 0 4.3156-0.8436 6.1621-2.4414l0.26562 0.50977c-3.7531 3.2357-9.1024 3.2357-12.855 0z" color="#000000" fill="currentColor" stroke-linecap="round" stroke-linejoin="round" stroke-width="1.2444" style="-inkscape-stroke:none"/>
</svg>
