<svg width="24" height="24" fill="none" version="1.1" viewBox="0 0 24 24" xmlns="http://www.w3.org/2000/svg">
 <path d="m11.839 0.875c-1.1588 0-2.1562 0.86981-2.3146 2.0177l-0.10709 0.78615c-0.0079 0.057535-0.07728 0.16325-0.23609 0.22635-0.08148 0.03239-0.16271 0.064431-0.24339 0.09979-0.15617 0.068431-0.27723 0.044597-0.32371 0.00974l-0.38212-0.2872c-0.92374-0.6928-2.2381-0.59986-3.0545 0.21662l-0.23365 0.23365c-0.81646 0.81646-0.90942 2.1308-0.21662 3.0545l0.2872 0.38212c0.034835 0.04644 0.058708 0.1675-0.00974 0.32371-0.035359 0.08068-0.0674 0.16191-0.09979 0.24339-0.063109 0.1588-0.16882 0.22815-0.22635 0.23609l-0.78614 0.10709c-1.1477 0.15843-2.0177 1.1558-2.0177 2.3146v0.32127c0 1.1588 0.86981 2.1562 2.0177 2.3146l0.78615 0.10709c0.057535 8e-3 0.16325 0.07729 0.22635 0.23609 0.032374 0.08144 0.066762 0.16253 0.10222 0.24339h-0.00243c0.068428 0.15617 0.044557 0.27728 0.00974 0.32371l-0.28721 0.38212c-0.69283 0.92372-0.59984 2.2381 0.21662 3.0545l0.23365 0.23365c0.81646 0.81648 2.1308 0.90944 3.0545 0.21662l0.38212-0.2872c0.04645-0.03484 0.16758-0.05868 0.32371 0.0097 0.08135 0.03563 0.16337 0.06789 0.24339 0.09979 0.15858 0.06299 0.22816 0.16888 0.23609 0.22635l0.10709 0.78615c0.15845 1.1479 1.1558 2.0177 2.3146 2.0177h0.32127c1.1589 0 2.1562-0.86982 2.3146-2.0177l0.10709-0.78615c8e-3 -0.05747 0.07751-0.16336 0.23609-0.22635 0.07998-0.03188 0.16083-0.06589 0.24339-0.10222v0.0024c0.15621-0.06843 0.27728-0.04456 0.32371-0.0097l0.38212 0.2872c0.92373 0.69286 2.2381 0.59985 3.0545-0.21662l0.23365-0.23365c0.81647-0.81647 0.90948-2.1308 0.21662-3.0545l-0.2872-0.38212c-0.03482-0.04642-0.05868-0.16758 0.0097-0.32371 0.03575-0.08156 0.06791-0.16341 0.09979-0.24339 0.06299-0.15858 0.16888-0.22816 0.22635-0.23609l0.78618-0.10706c1.1479-0.15852 2.0177-1.1558 2.0177-2.3146v-0.32127c0-1.1589-0.86982-2.1562-2.0177-2.3146l-0.78615-0.10709c-0.05747-0.0079-0.16336-0.07751-0.22635-0.23609-0.0319-0.08002-0.06601-0.16104-0.10222-0.24339h0.0024c-0.06843-0.15622-0.0446-0.27723-0.0097-0.32371l0.2872-0.38212c0.69282-0.92374 0.59986-2.2381-0.21662-3.0545l-0.23365-0.23365c-0.81648-0.81646-2.1308-0.90945-3.0545-0.21662l-0.38212 0.2872c-0.04641 0.034813-0.16752 0.058696-0.32371-0.00974v0.00243c-0.080856-0.035453-0.16195-0.069842-0.24339-0.10222-0.1588-0.063106-0.22815-0.16882-0.23609-0.22635l-0.10709-0.78615c-0.15845-1.1479-1.1558-2.0177-2.3146-2.0177zm0 2.1808h0.32127c0.08586 0 0.14156 0.048563 0.15334 0.13386l0.10953 0.78858c0.13063 0.94696 0.8058 1.6406 1.5893 1.952 0.05863 0.023304 0.11609 0.04814 0.17281 0.073017 0.77295 0.33868 1.7418 0.33047 2.5069-0.24339l0.38456-0.2872c0.06846-0.051347 0.14145-0.048394 0.20201 0.012169l0.23609 0.23609c0.06056 0.060559 0.06351 0.13351 0.01217 0.20201h0.0024l-0.2896 0.38456c-0.57376 0.76507-0.58195 1.734-0.24339 2.5069a1.0905 1.0905 0 0 0 0 0.0024c0.02435 0.05535 0.04909 0.11276 0.07302 0.17281 0.31171 0.78298 1.0058 1.4564 1.952 1.5869l0.78858 0.10953c0.08531 0.01184 0.13386 0.06754 0.13386 0.15334v0.32127c0 0.0858-0.04855 0.14156-0.13386 0.15334l-0.78858 0.10953c-0.94619 0.13054-1.6403 0.80392-1.952 1.5869-0.02395 0.06009-0.04847 0.11923-0.07302 0.17524-0.33881 0.77301-0.33042 1.7418 0.24339 2.5069l0.2872 0.38456c0.05134 0.06845 0.04844 0.14144-0.01217 0.20201l-0.23609 0.23609c-0.06058 0.06058-0.13356 0.06347-0.20201 0.01217l-0.38456-0.2872c-0.76507-0.57377-1.734-0.58192-2.5069-0.24336a1.0905 1.0905 0 0 0-0.0024 0c-0.05502 0.02421-0.11272 0.04907-0.17281 0.07302-0.78298 0.31171-1.4564 1.0058-1.5869 1.952l-0.10953 0.78858c-0.01184 0.08531-0.06754 0.13386-0.15334 0.13386h-0.32127c-0.0858 0-0.14156-0.04855-0.15334-0.13386l-0.10953-0.78858c-0.13054-0.94619-0.80392-1.6403-1.5869-1.952h-0.0024c-0.05929-0.02365-0.11713-0.04863-0.17281-0.07302-0.773-0.33881-1.7418-0.33039-2.5069 0.24339l-0.38456 0.2872c-0.068502 0.05138-0.14145 0.04843-0.20201-0.01217l-0.23616-0.23609c-0.060558-0.06056-0.063511-0.13355-0.012169-0.20201l0.2872-0.38456c0.57383-0.76507 0.58208-1.7339 0.24339-2.5069-0.024876-0.05672-0.049712-0.11418-0.073017-0.17281-0.31136-0.78354-1.005-1.4587-1.952-1.5893l-0.78858-0.10953c-0.085302-0.01178-0.13386-0.06748-0.13386-0.15334v-0.32127c0-0.08608 0.048419-0.14154 0.13386-0.15334l0.78858-0.10953c0.94696-0.13063 1.6406-0.8058 1.952-1.5893 0.023288-0.05858 0.048036-0.1158 0.073017-0.17281 0.33867-0.77294 0.33045-1.7418-0.24339-2.5069l-0.2872-0.38456c-0.051375-0.068499-0.048386-0.14146 0.01217-0.20201l0.23609-0.23609c0.060541-0.060541 0.13351-0.063541 0.20201-0.012169l0.38456 0.2872c0.76507 0.57379 1.734 0.58208 2.5069 0.24339 0.057-0.02498 0.11422-0.049729 0.17281-0.073017 0.78354-0.31136 1.4587-1.005 1.5893-1.952l0.10953-0.78858c0.01178-0.085301 0.06748-0.13386 0.15334-0.13386zm0.16064 5.2962c-1.4495 0-2.6481 1.1985-2.6481 2.6481s1.1985 2.6481 2.6481 2.6481 2.6481-1.1985 2.6481-2.6481-1.1985-2.6481-2.6481-2.6481zm0 2.1808c0.27114 0 0.46731 0.19617 0.46731 0.46731s-0.19617 0.46731-0.46731 0.46731-0.46731-0.19617-0.46731-0.46731 0.19617-0.46731 0.46731-0.46731z" color="#000000" fill="currentColor" stroke-linecap="round" stroke-linejoin="round" stroke-width="1.2462" style="-inkscape-stroke:none"/>
</svg>
