<svg width="24" height="24" fill="none" version="1.1" viewBox="0 0 24 24" xmlns="http://www.w3.org/2000/svg">
 <path d="m12 0.875c-2.826 0-5.1404 2.3143-5.1404 5.1404 0 2.826 2.3143 5.1404 5.1404 5.1404 2.826 0 5.1404-2.3143 5.1404-5.1404 0-2.826-2.3143-5.1404-5.1404-5.1404zm0 2.1808c1.6475 0 2.9596 1.3122 2.9596 2.9596 0 1.6475-1.3122 2.9596-2.9596 2.9596s-2.9596-1.3122-2.9596-2.9596c0-1.6475 1.3122-2.9596 2.9596-2.9596zm0 9.3462c-5.3862 0-8.1093 2.5023-9.2391 4.6414-0.51605 0.9771-0.34433 2.1479 0.25556 2.9012 0.59989 0.75332 1.5389 1.1804 2.5629 1.1804h12.841c1.024 0 1.963-0.42713 2.5629-1.1804 0.59988-0.7533 0.77155-1.9241 0.25556-2.9012-1.1298-2.1391-3.8529-4.6414-9.2391-4.6414zm0 2.1808c4.7525 0 6.486 1.9178 7.3114 3.4805 0.14846 0.28112 0.10372 0.35023-0.03407 0.52329-0.13781 0.17305-0.45777 0.35778-0.85673 0.35778h-12.841c-0.39897 0-0.71894-0.18474-0.85673-0.35778-0.1378-0.17304-0.18256-0.24215-0.034075-0.52329 0.82527-1.5626 2.5589-3.4805 7.3114-3.4805z" color="#000000" fill="currentColor" stroke-linecap="round" stroke-linejoin="round" stroke-width="1.2462" style="-inkscape-stroke:none"/>
</svg>
