<svg width="24" height="24" fill="none" version="1.1" viewBox="0 0 24 24" xmlns="http://www.w3.org/2000/svg">
 <path d="m11.649 1.875c-2.826 0-5.1404 2.3143-5.1404 5.1404 0 2.826 2.3143 5.1404 5.1404 5.1404 2.826 0 5.1404-2.3143 5.1404-5.1404 0-2.826-2.3143-5.1404-5.1404-5.1404zm0 2.1808c1.6475 0 2.9596 1.3122 2.9596 2.9596 0 1.6475-1.3122 2.9596-2.9596 2.9596s-2.9596-1.3122-2.9596-2.9596c0-1.6475 1.3122-2.9596 2.9596-2.9596zm0.31154 9.3462c-5.3102 0-8.115 2.4135-9.3608 4.5173-0.57653 0.97364-0.45038 2.1811 0.1436 2.9669 0.59398 0.78585 1.5563 1.2389 2.6116 1.2389h6.6056a1.0904 1.0904 0 0 0 1.0904-1.0904 1.0904 1.0904 0 0 0-1.0904-1.0904h-6.6056c-0.41453 0-0.73668-0.19424-0.87133-0.37239-0.13465-0.17815-0.17966-0.25167-0.0073-0.54276 0.92663-1.5649 2.7987-3.4464 7.4842-3.4464a1.0904 1.0904 0 0 0 1.0904-1.0904 1.0904 1.0904 0 0 0-1.0904-1.0904zm4.3615 3.7385a1.0904 1.0904 0 0 0-1.0904 1.0904 1.0904 1.0904 0 0 0 1.0904 1.0904h4.3615a1.0904 1.0904 0 0 0 1.0904-1.0904 1.0904 1.0904 0 0 0-1.0904-1.0904z" color="#000000" fill="currentColor" stroke-linecap="round" stroke-linejoin="round" stroke-width="1.2462" style="-inkscape-stroke:none"/>
</svg>
